<svg width="0" height="0" class="hidden">
  <symbol xmlns="http://www.w3.org/2000/svg" viewBox="0 0 20 20" id="phone">
    <mask id="path-1-inside-1_293_568" fill="white">
      <path d="M12.2655 1.26967C12.2862 1.19192 12.3221 1.11902 12.371 1.05513C12.4199 0.99125 12.4809 0.937636 12.5506 0.897357C12.6202 0.857079 12.6972 0.830926 12.7769 0.820394C12.8567 0.809862 12.9378 0.815158 13.0155 0.835978C14.4943 1.22173 15.8435 1.99476 16.9241 3.07543C18.0048 4.15611 18.7778 5.50535 19.1635 6.98418C19.1843 7.0619 19.1896 7.14297 19.1791 7.22274C19.1686 7.30251 19.1424 7.37943 19.1021 7.44909C19.0619 7.51874 19.0083 7.57978 18.9444 7.6287C18.8805 7.67763 18.8076 7.71348 18.7298 7.73421C18.6782 7.74795 18.6251 7.75481 18.5717 7.75462C18.4368 7.7547 18.3056 7.71023 18.1986 7.62811C18.0916 7.546 18.0147 7.43084 17.9798 7.30052C17.6487 6.03025 16.9848 4.87127 16.0565 3.94304C15.1283 3.0148 13.9694 2.35088 12.6992 2.0197C12.6214 1.99897 12.5485 1.96312 12.4846 1.9142C12.4207 1.86527 12.3671 1.80424 12.3268 1.73458C12.2866 1.66492 12.2604 1.58801 12.2499 1.50823C12.2394 1.42846 12.2447 1.34739 12.2655 1.26967ZM11.8828 5.28513C13.3675 5.68107 14.3186 6.63212 14.7145 8.11687C14.7493 8.24719 14.8262 8.36236 14.9333 8.44447C15.0403 8.52659 15.1714 8.57106 15.3063 8.57097C15.3597 8.57117 15.4129 8.5643 15.4645 8.55056C15.5422 8.52984 15.6151 8.49399 15.679 8.44506C15.7429 8.39614 15.7965 8.3351 15.8368 8.26544C15.8771 8.19579 15.9032 8.11887 15.9138 8.0391C15.9243 7.95933 15.919 7.87826 15.8982 7.80053C15.388 5.89128 14.1084 4.61164 12.1991 4.10141C12.1214 4.08064 12.0404 4.07538 11.9606 4.08594C11.8809 4.09649 11.804 4.12265 11.7343 4.16292C11.5937 4.24425 11.4911 4.37813 11.4491 4.5351C11.4072 4.69207 11.4293 4.85928 11.5106 4.99994C11.592 5.14059 11.7258 5.24318 11.8828 5.28513ZM19.989 15.1835C19.8142 16.5174 19.1596 17.7421 18.1476 18.6285C17.1355 19.5149 15.8353 20.0025 14.49 20C6.50009 20 1.01758e-05 13.4997 1.01758e-05 5.50963C-0.00256716 4.16472 0.484526 2.86487 1.3703 1.85287C2.25608 0.840877 3.47996 0.185953 4.81334 0.0104356C5.12028 -0.0268663 5.43103 0.0364252 5.69894 0.190805C5.96684 0.345184 6.17743 0.582318 6.29907 0.866591L8.45216 5.6729C8.54722 5.89049 8.58656 6.12834 8.56661 6.36495C8.54665 6.60156 8.46804 6.82946 8.33787 7.02806C8.32474 7.04827 8.31043 7.06769 8.29501 7.08622L6.14499 9.64347C6.13193 9.66997 6.12514 9.69912 6.12514 9.72867C6.12514 9.75822 6.13193 9.78737 6.14499 9.81388C6.92663 11.4139 8.6042 13.0793 10.2267 13.86C10.2538 13.8723 10.2834 13.8782 10.3131 13.8771C10.3429 13.8761 10.372 13.8681 10.3981 13.8538L12.9175 11.7109C12.9355 11.6952 12.9546 11.6809 12.9747 11.668C13.1724 11.5362 13.3998 11.4558 13.6364 11.4341C13.8731 11.4123 14.1114 11.45 14.3298 11.5435L19.1503 13.7038C19.4307 13.8281 19.6638 14.0394 19.8148 14.3065C19.9659 14.5735 20.027 14.8821 19.989 15.1865V15.1835ZM18.7758 15.0325C18.7792 14.9898 18.7691 14.9471 18.7469 14.9105C18.7248 14.8739 18.6917 14.8451 18.6523 14.8284L13.8308 12.6681C13.8045 12.6579 13.7762 12.6536 13.748 12.6553C13.7199 12.6571 13.6924 12.6649 13.6675 12.6783L11.1491 14.8212C11.1308 14.8365 11.1114 14.8508 11.092 14.8641C10.8866 15.0011 10.6491 15.0825 10.4029 15.1004C10.1566 15.1182 9.90993 15.072 9.68687 14.9661C7.81337 14.061 5.946 12.2109 5.04089 10.3547C4.93443 10.1329 4.88705 9.88744 4.90331 9.64198C4.91958 9.39652 4.99896 9.15942 5.13375 8.95364C5.14689 8.93318 5.16156 8.91373 5.17763 8.89548L7.32663 6.33823C7.33891 6.31151 7.34527 6.28244 7.34527 6.25303C7.34527 6.22361 7.33891 6.19455 7.32663 6.16782L5.17763 1.35743C5.16344 1.31882 5.13793 1.2854 5.10442 1.26154C5.07092 1.23769 5.03099 1.22452 4.98987 1.22375H4.9664C3.92857 1.36181 2.97647 1.8729 2.28789 2.66159C1.59931 3.45028 1.22132 4.46264 1.22452 5.50963C1.22452 12.8242 7.17561 18.7755 14.49 18.7755C15.5371 18.7786 16.5496 18.4005 17.3383 17.7117C18.127 17.0229 18.6379 16.0705 18.7758 15.0325Z"></path>
    </mask>
    <path d="M12.2655 1.26967C12.2862 1.19192 12.3221 1.11902 12.371 1.05513C12.4199 0.99125 12.4809 0.937636 12.5506 0.897357C12.6202 0.857079 12.6972 0.830926 12.7769 0.820394C12.8567 0.809862 12.9378 0.815158 13.0155 0.835978C14.4943 1.22173 15.8435 1.99476 16.9241 3.07543C18.0048 4.15611 18.7778 5.50535 19.1635 6.98418C19.1843 7.0619 19.1896 7.14297 19.1791 7.22274C19.1686 7.30251 19.1424 7.37943 19.1021 7.44909C19.0619 7.51874 19.0083 7.57978 18.9444 7.6287C18.8805 7.67763 18.8076 7.71348 18.7298 7.73421C18.6782 7.74795 18.6251 7.75481 18.5717 7.75462C18.4368 7.7547 18.3056 7.71023 18.1986 7.62811C18.0916 7.546 18.0147 7.43084 17.9798 7.30052C17.6487 6.03025 16.9848 4.87127 16.0565 3.94304C15.1283 3.0148 13.9694 2.35088 12.6992 2.0197C12.6214 1.99897 12.5485 1.96312 12.4846 1.9142C12.4207 1.86527 12.3671 1.80424 12.3268 1.73458C12.2866 1.66492 12.2604 1.58801 12.2499 1.50823C12.2394 1.42846 12.2447 1.34739 12.2655 1.26967ZM11.8828 5.28513C13.3675 5.68107 14.3186 6.63212 14.7145 8.11687C14.7493 8.24719 14.8262 8.36236 14.9333 8.44447C15.0403 8.52659 15.1714 8.57106 15.3063 8.57097C15.3597 8.57117 15.4129 8.5643 15.4645 8.55056C15.5422 8.52984 15.6151 8.49399 15.679 8.44506C15.7429 8.39614 15.7965 8.3351 15.8368 8.26544C15.8771 8.19579 15.9032 8.11887 15.9138 8.0391C15.9243 7.95933 15.919 7.87826 15.8982 7.80053C15.388 5.89128 14.1084 4.61164 12.1991 4.10141C12.1214 4.08064 12.0404 4.07538 11.9606 4.08594C11.8809 4.09649 11.804 4.12265 11.7343 4.16292C11.5937 4.24425 11.4911 4.37813 11.4491 4.5351C11.4072 4.69207 11.4293 4.85928 11.5106 4.99994C11.592 5.14059 11.7258 5.24318 11.8828 5.28513ZM19.989 15.1835C19.8142 16.5174 19.1596 17.7421 18.1476 18.6285C17.1355 19.5149 15.8353 20.0025 14.49 20C6.50009 20 1.01758e-05 13.4997 1.01758e-05 5.50963C-0.00256716 4.16472 0.484526 2.86487 1.3703 1.85287C2.25608 0.840877 3.47996 0.185953 4.81334 0.0104356C5.12028 -0.0268663 5.43103 0.0364252 5.69894 0.190805C5.96684 0.345184 6.17743 0.582318 6.29907 0.866591L8.45216 5.6729C8.54722 5.89049 8.58656 6.12834 8.56661 6.36495C8.54665 6.60156 8.46804 6.82946 8.33787 7.02806C8.32474 7.04827 8.31043 7.06769 8.29501 7.08622L6.14499 9.64347C6.13193 9.66997 6.12514 9.69912 6.12514 9.72867C6.12514 9.75822 6.13193 9.78737 6.14499 9.81388C6.92663 11.4139 8.6042 13.0793 10.2267 13.86C10.2538 13.8723 10.2834 13.8782 10.3131 13.8771C10.3429 13.8761 10.372 13.8681 10.3981 13.8538L12.9175 11.7109C12.9355 11.6952 12.9546 11.6809 12.9747 11.668C13.1724 11.5362 13.3998 11.4558 13.6364 11.4341C13.8731 11.4123 14.1114 11.45 14.3298 11.5435L19.1503 13.7038C19.4307 13.8281 19.6638 14.0394 19.8148 14.3065C19.9659 14.5735 20.027 14.8821 19.989 15.1865V15.1835ZM18.7758 15.0325C18.7792 14.9898 18.7691 14.9471 18.7469 14.9105C18.7248 14.8739 18.6917 14.8451 18.6523 14.8284L13.8308 12.6681C13.8045 12.6579 13.7762 12.6536 13.748 12.6553C13.7199 12.6571 13.6924 12.6649 13.6675 12.6783L11.1491 14.8212C11.1308 14.8365 11.1114 14.8508 11.092 14.8641C10.8866 15.0011 10.6491 15.0825 10.4029 15.1004C10.1566 15.1182 9.90993 15.072 9.68687 14.9661C7.81337 14.061 5.946 12.2109 5.04089 10.3547C4.93443 10.1329 4.88705 9.88744 4.90331 9.64198C4.91958 9.39652 4.99896 9.15942 5.13375 8.95364C5.14689 8.93318 5.16156 8.91373 5.17763 8.89548L7.32663 6.33823C7.33891 6.31151 7.34527 6.28244 7.34527 6.25303C7.34527 6.22361 7.33891 6.19455 7.32663 6.16782L5.17763 1.35743C5.16344 1.31882 5.13793 1.2854 5.10442 1.26154C5.07092 1.23769 5.03099 1.22452 4.98987 1.22375H4.9664C3.92857 1.36181 2.97647 1.8729 2.28789 2.66159C1.59931 3.45028 1.22132 4.46264 1.22452 5.50963C1.22452 12.8242 7.17561 18.7755 14.49 18.7755C15.5371 18.7786 16.5496 18.4005 17.3383 17.7117C18.127 17.0229 18.6379 16.0705 18.7758 15.0325Z" fill="#537767"></path>
    <path d="M12.2655 1.26967L14.1974 1.78716L14.198 1.78488L12.2655 1.26967ZM13.0155 0.835978L12.498 2.7679L12.5107 2.77122L13.0155 0.835978ZM19.1635 6.98418L17.2282 7.48898L17.2316 7.50167L19.1635 6.98418ZM18.7298 7.73421L19.2445 9.66685L19.2451 9.6667L18.7298 7.73421ZM18.5717 7.75462L18.5789 5.75461L18.5705 5.75462L18.5717 7.75462ZM17.9798 7.30052L16.0445 7.80508L16.0477 7.81717L17.9798 7.30052ZM12.6992 2.0197L12.1839 3.95222L12.1946 3.955L12.6992 2.0197ZM11.8828 5.28513L11.3664 7.21732L11.3675 7.2176L11.8828 5.28513ZM14.7145 8.11687L12.782 8.63219L12.7824 8.63353L14.7145 8.11687ZM15.3063 8.57097L15.3136 6.57097L15.3051 6.57097L15.3063 8.57097ZM15.4645 8.55056L15.9792 10.4832L15.9797 10.4831L15.4645 8.55056ZM15.8982 7.80053L13.966 8.31688L13.9663 8.31802L15.8982 7.80053ZM12.1991 4.10141L11.6828 6.0336L11.6828 6.0336L12.1991 4.10141ZM11.7343 4.16292L10.7332 2.43154L11.7343 4.16292ZM19.989 15.1835H21.989L18.006 14.9236L19.989 15.1835ZM14.49 20L14.4937 18H14.49V20ZM1.01758e-05 5.50963H2.00001L2.00001 5.5058L1.01758e-05 5.50963ZM4.81334 0.0104356L4.57206 -1.97496L4.56218 -1.97376L4.55232 -1.97246L4.81334 0.0104356ZM6.29907 0.866591L4.46034 1.6534L4.46696 1.66887L4.47384 1.68424L6.29907 0.866591ZM8.45216 5.6729L10.2849 4.87217L10.2812 4.86369L10.2774 4.85525L8.45216 5.6729ZM8.33787 7.02806L6.66514 5.93168L6.66055 5.93875L8.33787 7.02806ZM8.29501 7.08622L9.82587 8.3733L9.83234 8.36553L8.29501 7.08622ZM6.14499 9.64347L4.61415 8.3564L4.45797 8.54216L4.35075 8.75989L6.14499 9.64347ZM6.12514 9.72867H4.12514H6.12514ZM6.14499 9.81388L7.94203 8.93601L7.93922 8.9303L6.14499 9.81388ZM10.2267 13.86L9.35953 15.6622L9.37812 15.6711L9.39689 15.6797L10.2267 13.86ZM10.3981 13.8538L11.3556 15.6097L11.5367 15.511L11.6939 15.3773L10.3981 13.8538ZM12.9175 11.7109L14.2133 13.2343L14.2221 13.2269L14.2308 13.2193L12.9175 11.7109ZM12.9747 11.668L14.0551 13.3511L14.0697 13.3417L14.0841 13.3321L12.9747 11.668ZM14.3298 11.5435L15.1477 9.71843L15.1327 9.71169L15.1175 9.70519L14.3298 11.5435ZM19.1503 13.7038L18.3323 15.5289L18.3399 15.5323L19.1503 13.7038ZM19.989 15.1865H17.989L21.9737 15.4338L19.989 15.1865ZM18.7758 15.0325L20.7584 15.2957L20.7652 15.2442L20.7694 15.1923L18.7758 15.0325ZM18.6523 14.8284L17.8345 16.6535L17.8515 16.6612L17.8687 16.6685L18.6523 14.8284ZM13.8308 12.6681L14.6486 10.8429L14.6002 10.8212L14.5508 10.8022L13.8308 12.6681ZM13.6675 12.6783L12.7208 10.9165L12.5334 11.0172L12.3714 11.1551L13.6675 12.6783ZM11.1491 14.8212L12.4295 16.3576L12.4374 16.3511L12.4452 16.3444L11.1491 14.8212ZM11.092 14.8641L12.2016 16.528L12.2115 16.5214L12.2214 16.5147L11.092 14.8641ZM9.68687 14.9661L8.81681 16.767L8.8293 16.7729L9.68687 14.9661ZM5.04089 10.3547L3.23783 11.2202L3.24322 11.2313L5.04089 10.3547ZM5.13375 8.95364L6.80678 10.0495L6.8118 10.0419L6.81675 10.0342L5.13375 8.95364ZM5.17763 8.89548L6.67881 10.217L6.69399 10.1998L6.70876 10.1822L5.17763 8.89548ZM7.32663 6.33823L8.85777 7.62494L9.03135 7.41839L9.144 7.17322L7.32663 6.33823ZM7.32663 6.16782L5.50057 6.9836L5.50487 6.99322L5.50927 7.0028L7.32663 6.16782ZM5.17763 1.35743L3.30029 2.04706L3.32378 2.11101L3.35156 2.17321L5.17763 1.35743ZM4.98987 1.22375L5.0272 -0.775903L5.00854 -0.776252H4.98987V1.22375ZM4.9664 1.22375V-0.776252H4.83396L4.70267 -0.758787L4.9664 1.22375ZM1.22452 5.50963H3.22452L3.22451 5.50353L1.22452 5.50963ZM14.49 18.7755L14.496 16.7755H14.49V18.7755ZM14.198 1.78488C14.151 1.9611 14.0697 2.12633 13.9589 2.27112L10.7831 -0.160852C10.5744 0.111708 10.4214 0.422739 10.333 0.75446L14.198 1.78488ZM13.9589 2.27112C13.848 2.41592 13.7096 2.53744 13.5517 2.62874L11.5494 -0.834021C11.2522 -0.662168 10.9918 -0.433418 10.7831 -0.160852L13.9589 2.27112ZM13.5517 2.62874C13.3939 2.72003 13.2195 2.77931 13.0387 2.80319L12.5151 -1.1624C12.1748 -1.11746 11.8466 -1.00588 11.5494 -0.834021L13.5517 2.62874ZM13.0387 2.80319C12.8579 2.82706 12.6741 2.81506 12.498 2.76786L13.533 -1.09591C13.2014 -1.18474 12.8555 -1.20734 12.5151 -1.1624L13.0387 2.80319ZM12.5107 2.77122C13.6454 3.06722 14.6807 3.66039 15.5099 4.48963L18.3384 1.66124C17.0063 0.32913 15.3432 -0.62376 13.5203 -1.09926L12.5107 2.77122ZM15.5099 4.48963C16.3391 5.31887 16.9323 6.3542 17.2283 7.48897L21.0988 6.47938C20.6233 4.6565 19.6704 2.99335 18.3384 1.66124L15.5099 4.48963ZM17.2316 7.50167C17.1844 7.32549 17.1724 7.14176 17.1963 6.96097L21.1619 7.48451C21.2068 7.14418 21.1842 6.79831 21.0954 6.46669L17.2316 7.50167ZM17.1963 6.96097C17.2202 6.78017 17.2794 6.60584 17.3707 6.44796L20.8335 8.45021C21.0054 8.15301 21.117 7.82486 21.1619 7.48451L17.1963 6.96097ZM17.3707 6.44796C17.462 6.29009 17.5835 6.15174 17.7283 6.04085L20.1604 9.21656C20.433 9.00782 20.6617 8.7474 20.8335 8.45021L17.3707 6.44796ZM17.7283 6.04085C17.8731 5.92997 18.0384 5.8487 18.2146 5.80171L19.2451 9.6667C19.5768 9.57826 19.8878 9.42529 20.1604 9.21656L17.7283 6.04085ZM18.2152 5.80156C18.3338 5.76997 18.4561 5.75419 18.5789 5.75463L18.5644 9.7546C18.794 9.75543 19.0227 9.72593 19.2445 9.66685L18.2152 5.80156ZM18.5705 5.75462C18.8762 5.75443 19.1735 5.85524 19.4161 6.04136L16.9812 9.21487C17.4378 9.56522 17.9973 9.75497 18.5729 9.75461L18.5705 5.75462ZM19.4161 6.04136C19.6586 6.22747 19.833 6.48848 19.9119 6.78386L16.0477 7.81717C16.1964 8.37319 16.5245 8.86453 16.9812 9.21487L19.4161 6.04136ZM19.9151 6.79596C19.4942 5.18155 18.6505 3.70857 17.4708 2.52884L14.6423 5.35723C15.319 6.03397 15.8031 6.87895 16.0445 7.80507L19.9151 6.79596ZM17.4708 2.52884C16.2911 1.34911 14.8181 0.505302 13.2037 0.0843932L12.1946 3.955C13.1206 4.19645 13.9656 4.68049 14.6423 5.35723L17.4708 2.52884ZM13.2144 0.0872034C13.3906 0.134188 13.5558 0.215448 13.7006 0.326341L11.2686 3.50205C11.5412 3.71079 11.8522 3.86375 12.1839 3.95219L13.2144 0.0872034ZM13.7006 0.326341C13.8455 0.437242 13.967 0.575589 14.0583 0.733454L10.5954 2.7357C10.7673 3.03288 10.996 3.2933 11.2686 3.50205L13.7006 0.326341ZM14.0583 0.733454C14.1495 0.891336 14.2088 1.06566 14.2327 1.24646L10.2671 1.77C10.312 2.11035 10.4236 2.4385 10.5954 2.7357L14.0583 0.733454ZM14.2327 1.24646C14.2566 1.42725 14.2446 1.61099 14.1974 1.78716L10.3336 0.752179C10.2448 1.0838 10.2222 1.42967 10.2671 1.77L14.2327 1.24646ZM11.3675 7.2176C12.1601 7.42897 12.5706 7.83948 12.782 8.63219L16.647 7.60156C16.0665 5.42477 14.5749 3.93316 12.3982 3.35266L11.3675 7.2176ZM12.7824 8.63353C12.931 9.18954 13.2592 9.68088 13.7158 10.0312L16.1507 6.85771C16.3933 7.04383 16.5676 7.30485 16.6466 7.60022L12.7824 8.63353ZM13.7158 10.0312C14.1724 10.3816 14.732 10.5713 15.3075 10.571L15.3051 6.57097C15.6109 6.57079 15.9081 6.67159 16.1507 6.85771L13.7158 10.0312ZM15.2991 10.571C15.5287 10.5718 15.7573 10.5423 15.9792 10.4832L14.9498 6.61792C15.0685 6.58632 15.1908 6.57054 15.3136 6.57099L15.2991 10.571ZM15.9797 10.4831C16.3115 10.3946 16.6225 10.2416 16.895 10.0329L14.463 6.85721C14.6078 6.74632 14.773 6.66506 14.9493 6.61807L15.9797 10.4831ZM16.895 10.0329C17.1676 9.82417 17.3964 9.56375 17.5682 9.26657L14.1054 7.26432C14.1967 7.10646 14.3182 6.96811 14.463 6.85721L16.895 10.0329ZM17.5682 9.26657C17.74 8.96937 17.8516 8.64122 17.8965 8.30087L13.931 7.77733C13.9548 7.59653 14.0141 7.4222 14.1054 7.26432L17.5682 9.26657ZM17.8965 8.30087C17.9415 7.96053 17.9189 7.61467 17.8301 7.28305L13.9663 8.31802C13.9191 8.14185 13.9071 7.95812 13.931 7.77733L17.8965 8.30087ZM17.8304 7.28419C17.1354 4.68373 15.316 2.86417 12.7155 2.16922L11.6828 6.0336C12.9007 6.3591 13.6405 7.09882 13.966 8.31688L17.8304 7.28419ZM12.7155 2.16922C12.384 2.08064 12.0384 2.05821 11.6982 2.10322L12.223 6.06865C12.0424 6.09255 11.8588 6.08064 11.6828 6.0336L12.7155 2.16922ZM11.6982 2.10322C11.3581 2.14823 11.0302 2.2598 10.7332 2.43154L12.7355 5.8943C12.5778 5.9855 12.4036 6.04475 12.223 6.06865L11.6982 2.10322ZM10.7332 2.43154C10.1333 2.7784 9.69583 3.34934 9.51694 4.01875L13.3813 5.05145C13.2863 5.40692 13.054 5.7101 12.7355 5.8943L10.7332 2.43154ZM9.51694 4.01875C9.33805 4.68816 9.4324 5.40121 9.77924 6.00106L13.242 3.99881C13.4262 4.31734 13.4763 4.69599 13.3813 5.05145L9.51694 4.01875ZM9.77924 6.00106C10.1261 6.60091 10.697 7.03842 11.3664 7.21732L12.3992 3.35294C12.7547 3.44795 13.0579 3.68028 13.242 3.99881L9.77924 6.00106ZM18.006 14.9236C17.8943 15.7756 17.4762 16.5578 16.8298 17.124L19.4653 20.133C20.843 18.9263 21.7341 17.2593 21.9721 15.4434L18.006 14.9236ZM16.8298 17.124C16.1834 17.6902 15.3529 18.0016 14.4937 18L14.4863 22C16.3177 22.0034 18.0876 21.3397 19.4653 20.133L16.8298 17.124ZM14.49 18C7.60471 18 2.00001 12.3952 2.00001 5.50963H-1.99999C-1.99999 14.6043 5.39547 22 14.49 22V18ZM2.00001 5.5058C1.99836 4.64676 2.30948 3.8165 2.87525 3.17012L-0.134641 0.535627C-1.34043 1.91324 -2.00349 3.68269 -1.99999 5.51346L2.00001 5.5058ZM2.87525 3.17012C3.44102 2.52374 4.22272 2.10543 5.07435 1.99333L4.55232 -1.97246C2.73721 -1.73353 1.07115 -0.841983 -0.134641 0.535627L2.87525 3.17012ZM5.05462 1.99583C4.93183 2.01075 4.80753 1.98543 4.70037 1.92368L6.69751 -1.54207C6.05454 -1.91258 5.30872 -2.06448 4.57206 -1.97496L5.05462 1.99583ZM4.70037 1.92368C4.59321 1.86193 4.50899 1.76708 4.46034 1.6534L8.1378 0.079787C7.84587 -0.602448 7.34047 -1.17156 6.69751 -1.54207L4.70037 1.92368ZM4.47384 1.68424L6.62693 6.49055L10.2774 4.85525L8.1243 0.0489427L4.47384 1.68424ZM6.61945 6.47364C6.58143 6.38662 6.5657 6.2915 6.57368 6.19688L10.5595 6.53302C10.6074 5.96518 10.513 5.39435 10.2849 4.87217L6.61945 6.47364ZM6.57368 6.19688C6.58166 6.10225 6.6131 6.01111 6.66516 5.93169L10.0106 8.12443C10.323 7.64782 10.5116 7.10087 10.5595 6.53302L6.57368 6.19688ZM6.66055 5.93875C6.6903 5.89294 6.72273 5.84892 6.75769 5.80691L9.83234 8.36553C9.89813 8.28647 9.95919 8.2036 10.0152 8.11737L6.66055 5.93875ZM6.76418 5.79916L4.61415 8.3564L7.67582 10.9305L9.82585 8.37329L6.76418 5.79916ZM4.35075 8.75989C4.20234 9.06124 4.12514 9.39269 4.12514 9.72867H8.12514C8.12514 10.0056 8.06152 10.2787 7.93922 10.527L4.35075 8.75989ZM4.12514 9.72867C4.12514 10.0646 4.20234 10.3961 4.35075 10.6975L7.93922 8.9303C8.06152 9.17865 8.12514 9.4518 8.12514 9.72867H4.12514ZM4.34795 10.6917C5.32835 12.6987 7.33506 14.6881 9.35953 15.6622L11.0938 12.0577C9.87335 11.4705 8.52491 10.1292 7.94203 8.93601L4.34795 10.6917ZM9.39689 15.6797C9.70644 15.8209 10.0446 15.888 10.3845 15.8758L10.2417 11.8784C10.5221 11.8684 10.8011 11.9238 11.0565 12.0402L9.39689 15.6797ZM10.3845 15.8758C10.7244 15.8637 11.0569 15.7726 11.3556 15.6097L9.44061 12.0979C9.68707 11.9635 9.96136 11.8884 10.2417 11.8784L10.3845 15.8758ZM11.6939 15.3773L14.2133 13.2343L11.6217 10.1874L9.1023 12.3304L11.6939 15.3773ZM14.2308 13.2193C14.1755 13.2675 14.1168 13.3115 14.0551 13.3511L11.8942 9.98497C11.7924 10.0503 11.6955 10.123 11.6043 10.2025L14.2308 13.2193ZM14.0841 13.3321C14.0051 13.3848 13.9141 13.417 13.8194 13.4257L13.4535 9.44245C12.8856 9.49462 12.3397 9.68763 11.8652 10.004L14.0841 13.3321ZM13.8194 13.4257C13.7248 13.4344 13.6294 13.4193 13.5421 13.3819L15.1175 9.70519C14.5933 9.48059 14.0214 9.39028 13.4535 9.44245L13.8194 13.4257ZM13.5119 13.3686L18.3323 15.5289L19.9682 11.8787L15.1477 9.71843L13.5119 13.3686ZM18.3399 15.5323C18.2277 15.4826 18.1345 15.398 18.0741 15.2912L21.5556 13.3217C21.193 12.6808 20.6338 12.1737 19.9606 11.8754L18.3399 15.5323ZM18.0741 15.2912C18.0136 15.1845 17.9892 15.061 18.0044 14.9393L21.9737 15.4338C22.0647 14.7031 21.9181 13.9626 21.5556 13.3217L18.0741 15.2912ZM21.989 15.1865V15.1835H17.989V15.1865H21.989ZM20.7694 15.1923C20.8063 14.7316 20.6975 14.2708 20.4582 13.8752L17.0357 15.9457C16.8407 15.6234 16.752 15.248 16.7822 14.8726L20.7694 15.1923ZM20.4582 13.8752C20.2188 13.4797 19.8612 13.1694 19.4359 12.9883L17.8687 16.6685C17.5221 16.5209 17.2307 16.2681 17.0357 15.9457L20.4582 13.8752ZM19.4701 13.0032L14.6486 10.8429L13.013 14.4932L17.8345 16.6535L19.4701 13.0032ZM14.5508 10.8022C14.2555 10.6882 13.9391 10.6395 13.6233 10.6592L13.8728 14.6514C13.6134 14.6676 13.3534 14.6276 13.1108 14.534L14.5508 10.8022ZM13.6233 10.6592C13.3075 10.679 12.9996 10.7667 12.7208 10.9165L14.6142 14.44C14.3852 14.5631 14.1323 14.6352 13.8728 14.6514L13.6233 10.6592ZM12.3714 11.1551L9.85303 13.298L12.4452 16.3444L14.9636 14.2015L12.3714 11.1551ZM9.86874 13.2848C9.91048 13.25 9.94404 13.2262 9.9626 13.2135L12.2214 16.5147C12.2787 16.4754 12.351 16.423 12.4295 16.3576L9.86874 13.2848ZM9.98237 13.2001C10.0645 13.1453 10.1595 13.1128 10.258 13.1056L10.5477 17.0951C11.1388 17.0522 11.7086 16.8568 12.2016 16.528L9.98237 13.2001ZM10.258 13.1056C10.3565 13.0985 10.4552 13.117 10.5444 13.1593L8.8293 16.7729C9.36466 17.027 9.95672 17.138 10.5477 17.0951L10.258 13.1056ZM10.5569 13.1653C9.08202 12.4527 7.54425 10.9254 6.83856 9.47814L3.24322 11.2313C4.34776 13.4965 6.54473 15.6692 8.81683 16.767L10.5569 13.1653ZM6.84392 9.48921C6.88649 9.57791 6.90544 9.67609 6.89894 9.77425L2.90769 9.50972C2.86865 10.0988 2.98238 10.688 3.23786 11.2202L6.84392 9.48921ZM6.89894 9.77425C6.89243 9.87241 6.86069 9.96723 6.80678 10.0495L3.46072 7.85775C3.13722 8.35162 2.94673 8.92064 2.90769 9.50972L6.89894 9.77425ZM6.81675 10.0342C6.77543 10.0985 6.72932 10.1596 6.67881 10.217L3.67644 7.57395C3.59379 7.66783 3.51834 7.76784 3.45075 7.87313L6.81675 10.0342ZM6.70876 10.1822L8.85777 7.62494L5.7955 5.05153L3.64649 7.60877L6.70876 10.1822ZM9.144 7.17322C9.27663 6.88454 9.34527 6.57064 9.34527 6.25303H5.34527C5.34527 5.99424 5.4012 5.73848 5.50927 5.50325L9.144 7.17322ZM9.34527 6.25303C9.34527 5.93543 9.27663 5.62152 9.144 5.33284L5.50927 7.0028C5.4012 6.76757 5.34527 6.5118 5.34527 6.25303H9.34527ZM9.1527 5.35204L7.00369 0.541647L3.35156 2.17321L5.50057 6.9836L9.1527 5.35204ZM7.05497 0.667791C6.90181 0.250862 6.62625 -0.110076 6.26441 -0.367701L3.94444 2.89079C3.64961 2.68087 3.42508 2.38678 3.30029 2.04706L7.05497 0.667791ZM6.26441 -0.367701C5.90257 -0.625321 5.47133 -0.767611 5.0272 -0.775903L4.95254 3.2234C4.59066 3.21664 4.23927 3.1007 3.94444 2.89079L6.26441 -0.367701ZM4.98987 -0.776252H4.9664V3.22375H4.98987V-0.776252ZM4.70267 -0.758787C3.18327 -0.556668 1.78938 0.191583 0.781299 1.34622L3.79448 3.97695C4.16356 3.55421 4.67388 3.28028 5.23013 3.20628L4.70267 -0.758787ZM0.781299 1.34622C-0.226785 2.50086 -0.78015 3.98295 -0.775475 5.51573L3.22451 5.50353C3.22279 4.94232 3.4254 4.39969 3.79448 3.97695L0.781299 1.34622ZM-0.775484 5.50963C-0.775484 13.9287 6.07099 20.7755 14.49 20.7755V16.7755C8.28023 16.7755 3.22452 11.7197 3.22452 5.50963H-0.775484ZM14.484 20.7754C16.017 20.7801 17.4992 20.2265 18.6539 19.218L16.0227 16.2053C15.5999 16.5745 15.0573 16.7772 14.496 16.7755L14.484 20.7754ZM18.6539 19.218C19.8085 18.2096 20.5566 16.8154 20.7584 15.2957L16.7932 14.7692C16.7193 15.3256 16.4454 15.8361 16.0227 16.2053L18.6539 19.218Z" fill="#537767" mask="url(#path-1-inside-1_293_568)"></path>
  </symbol>
</svg>