<?xml version="1.0" standalone="no"?>
<!DOCTYPE svg PUBLIC "-//W3C//DTD SVG 20010904//EN"
 "http://www.w3.org/TR/2001/REC-SVG-20010904/DTD/svg10.dtd">
<svg version="1.0" xmlns="http://www.w3.org/2000/svg"
 width="512.000000pt" height="512.000000pt" viewBox="0 0 512.000000 512.000000"
 preserveAspectRatio="xMidYMid meet">

<g transform="translate(0.000000,512.000000) scale(0.100000,-0.100000)"
fill="#000000" stroke="none">
<path d="M2015 4789 c-467 -63 -868 -333 -1103 -743 -203 -353 -246 -802 -116
-1196 124 -374 417 -702 779 -871 100 -46 226 -89 287 -96 41 -5 50 -2 72 20
60 60 21 115 -109 153 -203 58 -392 171 -556 334 -359 357 -479 870 -318 1355
126 379 446 698 827 825 155 51 241 65 422 65 181 0 267 -14 422 -65 382 -128
700 -445 827 -825 52 -158 66 -243 65 -425 0 -172 -7 -224 -50 -378 -25 -87
-25 -93 -10 -118 35 -52 101 -57 133 -8 24 38 69 223 84 344 15 132 7 313 -20
446 -121 593 -565 1039 -1160 1165 -112 23 -367 33 -476 18z"/>
<path d="M2020 4425 c-245 -39 -500 -180 -659 -365 -77 -89 -110 -138 -160
-237 -160 -320 -160 -686 0 -1006 106 -211 273 -381 480 -487 224 -115 447
-152 693 -115 158 24 207 61 177 133 -20 47 -54 56 -136 36 -97 -24 -334 -25
-429 -1 -172 43 -323 126 -449 246 -325 311 -390 809 -155 1191 167 271 454
441 773 457 521 26 967 -373 1002 -897 5 -80 10 -98 29 -117 31 -31 78 -30
109 2 30 29 32 81 10 225 -45 302 -223 583 -476 757 -226 155 -529 222 -809
178z"/>
<path d="M2125 3875 c-22 -22 -25 -32 -25 -105 0 -73 3 -83 25 -105 15 -16 36
-25 55 -25 19 0 40 9 55 25 22 22 25 32 25 105 0 73 -3 83 -25 105 -15 16 -36
25 -55 25 -19 0 -40 -9 -55 -25z"/>
<path d="M1945 3535 c-16 -15 -25 -36 -25 -55 0 -19 9 -40 25 -55 21 -22 33
-25 90 -25 l65 0 0 -200 0 -200 -105 0 c-99 0 -107 -2 -130 -25 -33 -32 -33
-78 0 -110 l24 -25 271 0 271 0 24 25 c16 15 25 36 25 55 0 19 -9 40 -25 55
-22 23 -32 25 -110 25 l-85 0 0 255 0 256 -25 24 c-23 24 -30 25 -145 25 -115
0 -122 -1 -145 -25z"/>
<path d="M2849 3066 c-76 -27 -119 -64 -160 -136 -11 -20 -15 -131 -19 -610
l-5 -585 -100 144 c-75 108 -111 152 -145 173 -169 108 -390 25 -390 -147 0
-52 41 -147 205 -475 107 -213 144 -271 266 -405 90 -100 109 -141 116 -255
l6 -90 -47 0 c-36 0 -52 -5 -71 -25 -24 -24 -25 -27 -25 -185 0 -158 1 -161
25 -185 32 -33 78 -33 110 0 23 23 25 31 25 130 l0 105 670 0 670 0 0 -105 c0
-99 2 -107 25 -130 32 -33 78 -33 110 0 24 24 25 27 25 185 0 158 -1 161 -25
185 -20 21 -34 25 -85 25 l-60 0 0 63 c1 80 16 120 79 212 29 41 64 101 79
132 l27 58 3 365 c2 201 1 384 -3 407 -17 119 -159 215 -274 185 -41 -10 -42
-10 -60 26 -54 106 -190 158 -302 118 -35 -12 -36 -12 -62 25 -17 23 -49 48
-82 64 -45 22 -64 26 -119 23 l-64 -3 -4 260 -3 260 -28 57 c-58 119 -190 176
-308 134z m130 -162 c50 -35 51 -50 51 -538 0 -428 1 -455 19 -477 25 -31 83
-32 114 -1 20 20 22 34 25 145 3 107 6 125 25 145 28 31 80 30 112 -3 24 -23
25 -29 25 -160 0 -131 1 -137 25 -160 32 -33 78 -33 110 0 22 22 25 32 25 105
0 77 2 83 29 111 37 37 79 38 120 3 l31 -26 0 -108 c0 -60 5 -120 11 -133 12
-26 47 -47 80 -47 33 0 69 44 69 84 0 48 18 83 49 96 33 13 75 0 90 -29 16
-29 15 -697 -1 -742 -6 -19 -38 -74 -72 -124 -77 -116 -97 -169 -104 -278 l-5
-87 -513 0 -514 0 0 53 c-1 88 -19 186 -46 243 -14 29 -60 93 -102 141 -120
136 -145 171 -199 273 -71 132 -243 498 -243 515 0 36 86 47 135 16 18 -10 79
-89 148 -190 132 -191 150 -206 229 -199 58 6 103 43 118 97 6 22 10 270 10
631 0 531 2 598 16 618 29 42 92 54 133 26z"/>
</g>
</svg>
