<?xml version="1.0" encoding="UTF-8" standalone="no"?>
<!DOCTYPE svg PUBLIC "-//W3C//DTD SVG 1.1//EN" "http://www.w3.org/Graphics/SVG/1.1/DTD/svg11.dtd">
<svg xmlns="http://www.w3.org/2000/svg" version="1.1" viewBox="0.00 0.00 512.00 512.00">
<g stroke-width="2.00" fill="none" stroke-linecap="butt">
<path stroke="#9b9ec8" vector-effect="non-scaling-stroke" d="
  M 48.99 88.19
  Q 49.03 88.68 49.82 89.20
  Q 130.44 142.16 211.27 195.00
  Q 211.76 195.32 211.76 194.73
  L 211.92 88.23"
/>
<path stroke="#faa0a5" vector-effect="non-scaling-stroke" d="
  M 227.99 88.02
  Q 228.35 88.28 228.94 88.26
  Q 229.50 88.24 229.50 88.80
  L 229.50 228.99
  Q 229.50 229.51 228.98 229.51
  L 0.00 229.52"
/>
<path stroke="#9b9ec8" vector-effect="non-scaling-stroke" d="
  M 0.00 211.93
  L 139.20 211.61
  Q 139.84 211.61 139.31 211.27
  L 0.00 119.98"
/>
<path stroke="#faa0a5" vector-effect="non-scaling-stroke" d="
  M 0.00 106.85
  L 161.34 211.56
  Q 161.77 211.84 162.28 211.84
  L 193.28 211.77
  Q 193.97 211.77 193.39 211.40
  L 4.94 89.03"
/>
<path stroke="#faa0a5" vector-effect="non-scaling-stroke" d="
  M 282.49 87.99
  L 282.51 228.97
  Q 282.51 229.49 283.04 229.49
  L 512.00 229.51"
/>
<path stroke="#faa0a5" vector-effect="non-scaling-stroke" d="
  M 512.00 282.48
  L 283.02 282.49
  Q 282.51 282.49 282.51 283.01
  L 282.46 423.99"
/>
<path stroke="#faa0a5" vector-effect="non-scaling-stroke" d="
  M 229.53 423.97
  L 229.49 283.03
  Q 229.49 282.50 228.97 282.50
  L 0.00 282.50"
/>
<path stroke="#9b9ec8" vector-effect="non-scaling-stroke" d="
  M 300.07 88.25
  L 300.27 195.09
  A 0.13 0.13 0.0 0 0 300.47 195.20
  L 462.36 89.17
  Q 462.65 88.98 462.79 88.67
  L 463.00 88.23"
/>
<path stroke="#faa0a5" vector-effect="non-scaling-stroke" d="
  M 490.89 88.13
  L 301.08 211.34
  A 0.27 0.26 -61.3 0 0 301.22 211.83
  L 332.47 211.73
  A 1.04 1.04 0.0 0 0 333.04 211.56
  Q 422.18 153.69 511.31 95.82
  Q 511.59 95.64 512.00 96.07"
/>
<path stroke="#9b9ec8" vector-effect="non-scaling-stroke" d="
  M 512.00 119.95
  L 373.19 210.93
  Q 371.56 212.00 373.51 212.00
  L 512.00 211.90"
/>
<path stroke="#9b9ec8" vector-effect="non-scaling-stroke" d="
  M 512.00 300.04
  L 373.15 300.19
  Q 371.82 300.19 372.93 300.92
  L 512.00 392.05"
/>
<path stroke="#faa0a5" vector-effect="non-scaling-stroke" d="
  M 512.00 407.61
  L 346.98 300.53
  Q 346.55 300.25 346.04 300.25
  L 315.26 300.25
  Q 314.11 300.25 315.07 300.88
  L 504.05 423.59"
/>
<path stroke="#9b9ec8" vector-effect="non-scaling-stroke" d="
  M 463.54 423.68
  L 300.91 317.11
  Q 300.07 316.56 300.07 317.57
  L 300.02 423.74"
/>
<path stroke="#9b9ec8" vector-effect="non-scaling-stroke" d="
  M 211.94 423.76
  L 211.66 317.29
  Q 211.66 316.76 211.22 317.05
  L 48.27 423.76"
/>
<path stroke="#faa0a5" vector-effect="non-scaling-stroke" d="
  M 21.21 423.63
  L 210.65 300.58
  A 0.26 0.26 0.0 0 0 210.51 300.11
  L 179.24 300.31
  Q 178.70 300.31 178.24 300.61
  L 0.17 416.20"
/>
<path stroke="#9b9ec8" vector-effect="non-scaling-stroke" d="
  M 0.00 392.03
  L 139.65 300.53
  A 0.27 0.26 -61.3 0 0 139.51 300.04
  L 0.00 300.03"
/>
</g>
<path fill="#f5f5f5" d="
  M 48.99 88.19
  Q 49.03 88.68 49.82 89.20
  Q 130.44 142.16 211.27 195.00
  Q 211.76 195.32 211.76 194.73
  L 211.92 88.23
  L 227.99 88.02
  Q 228.35 88.28 228.94 88.26
  Q 229.50 88.24 229.50 88.80
  L 229.50 228.99
  Q 229.50 229.51 228.98 229.51
  L 0.00 229.52
  L 0.00 211.93
  L 139.20 211.61
  Q 139.84 211.61 139.31 211.27
  L 0.00 119.98
  L 0.00 106.85
  L 161.34 211.56
  Q 161.77 211.84 162.28 211.84
  L 193.28 211.77
  Q 193.97 211.77 193.39 211.40
  L 4.94 89.03
  Q 7.46 88.33 8.25 88.31
  Q 28.65 87.90 48.99 88.19
  Z"
/>
<path fill="#ff4b55" d="
  M 227.99 88.02
  L 282.49 87.99
  L 282.51 228.97
  Q 282.51 229.49 283.04 229.49
  L 512.00 229.51
  L 512.00 282.48
  L 283.02 282.49
  Q 282.51 282.49 282.51 283.01
  L 282.46 423.99
  L 229.53 423.97
  L 229.49 283.03
  Q 229.49 282.50 228.97 282.50
  L 0.00 282.50
  L 0.00 229.52
  L 228.98 229.51
  Q 229.50 229.51 229.50 228.99
  L 229.50 88.80
  Q 229.50 88.24 228.94 88.26
  Q 228.35 88.28 227.99 88.02
  Z"
/>
<path fill="#f5f5f5" d="
  M 282.49 87.99
  L 300.07 88.25
  L 300.27 195.09
  A 0.13 0.13 0.0 0 0 300.47 195.20
  L 462.36 89.17
  Q 462.65 88.98 462.79 88.67
  L 463.00 88.23
  L 490.89 88.13
  L 301.08 211.34
  A 0.27 0.26 -61.3 0 0 301.22 211.83
  L 332.47 211.73
  A 1.04 1.04 0.0 0 0 333.04 211.56
  Q 422.18 153.69 511.31 95.82
  Q 511.59 95.64 512.00 96.07
  L 512.00 119.95
  L 373.19 210.93
  Q 371.56 212.00 373.51 212.00
  L 512.00 211.90
  L 512.00 229.51
  L 283.04 229.49
  Q 282.51 229.49 282.51 228.97
  L 282.49 87.99
  Z"
/>
<path fill="#ff4b55" d="
  M 512.00 95.54
  L 512.00 96.07
  Q 511.59 95.64 511.31 95.82
  Q 422.18 153.69 333.04 211.56
  A 1.04 1.04 0.0 0 1 332.47 211.73
  L 301.22 211.83
  A 0.27 0.26 -61.3 0 1 301.08 211.34
  L 490.89 88.13
  C 499.53 87.81 509.48 86.05 512.00 95.54
  Z"
/>
<path fill="#41479b" d="
  M 48.99 88.19
  L 211.92 88.23
  L 211.76 194.73
  Q 211.76 195.32 211.27 195.00
  Q 130.44 142.16 49.82 89.20
  Q 49.03 88.68 48.99 88.19
  Z"
/>
<path fill="#41479b" d="
  M 300.07 88.25
  L 463.00 88.23
  L 462.79 88.67
  Q 462.65 88.98 462.36 89.17
  L 300.47 195.20
  A 0.13 0.13 0.0 0 1 300.27 195.09
  L 300.07 88.25
  Z"
/>
<path fill="#ff4b55" d="
  M 4.94 89.03
  L 193.39 211.40
  Q 193.97 211.77 193.28 211.77
  L 162.28 211.84
  Q 161.77 211.84 161.34 211.56
  L 0.00 106.85
  L 0.00 94.96
  Q 1.17 91.35 4.94 89.03
  Z"
/>
<path fill="#41479b" d="
  M 512.00 119.95
  L 512.00 211.90
  L 373.51 212.00
  Q 371.56 212.00 373.19 210.93
  L 512.00 119.95
  Z"
/>
<path fill="#41479b" d="
  M 0.00 119.98
  L 139.31 211.27
  Q 139.84 211.61 139.20 211.61
  L 0.00 211.93
  L 0.00 119.98
  Z"
/>
<path fill="#f5f5f5" d="
  M 512.00 282.48
  L 512.00 300.04
  L 373.15 300.19
  Q 371.82 300.19 372.93 300.92
  L 512.00 392.05
  L 512.00 407.61
  L 346.98 300.53
  Q 346.55 300.25 346.04 300.25
  L 315.26 300.25
  Q 314.11 300.25 315.07 300.88
  L 504.05 423.59
  L 463.54 423.68
  L 300.91 317.11
  Q 300.07 316.56 300.07 317.57
  L 300.02 423.74
  L 282.46 423.99
  L 282.51 283.01
  Q 282.51 282.49 283.02 282.49
  L 512.00 282.48
  Z"
/>
<path fill="#f5f5f5" d="
  M 0.00 282.50
  L 228.97 282.50
  Q 229.49 282.50 229.49 283.03
  L 229.53 423.97
  L 211.94 423.76
  L 211.66 317.29
  Q 211.66 316.76 211.22 317.05
  L 48.27 423.76
  L 21.21 423.63
  L 210.65 300.58
  A 0.26 0.26 0.0 0 0 210.51 300.11
  L 179.24 300.31
  Q 178.70 300.31 178.24 300.61
  L 0.17 416.20
  Q 0.57 416.35 0.00 415.94
  L 0.00 392.03
  L 139.65 300.53
  A 0.27 0.26 -61.3 0 0 139.51 300.04
  L 0.00 300.03
  L 0.00 282.50
  Z"
/>
<path fill="#41479b" d="
  M 0.00 300.03
  L 139.51 300.04
  A 0.27 0.26 -61.3 0 1 139.65 300.53
  L 0.00 392.03
  L 0.00 300.03
  Z"
/>
<path fill="#ff4b55" d="
  M 21.21 423.63
  Q 14.05 424.47 8.75 424.00
  Q 1.50 423.36 0.17 416.20
  L 178.24 300.61
  Q 178.70 300.31 179.24 300.31
  L 210.51 300.11
  A 0.26 0.26 0.0 0 1 210.65 300.58
  L 21.21 423.63
  Z"
/>
<path fill="#41479b" d="
  M 512.00 300.04
  L 512.00 392.05
  L 372.93 300.92
  Q 371.82 300.19 373.15 300.19
  L 512.00 300.04
  Z"
/>
<path fill="#ff4b55" d="
  M 512.00 407.61
  L 512.00 417.04
  Q 509.56 423.31 504.05 423.59
  L 315.07 300.88
  Q 314.11 300.25 315.26 300.25
  L 346.04 300.25
  Q 346.55 300.25 346.98 300.53
  L 512.00 407.61
  Z"
/>
<path fill="#41479b" d="
  M 211.94 423.76
  L 48.27 423.76
  L 211.22 317.05
  Q 211.66 316.76 211.66 317.29
  L 211.94 423.76
  Z"
/>
<path fill="#41479b" d="
  M 463.54 423.68
  L 300.02 423.74
  L 300.07 317.57
  Q 300.07 316.56 300.91 317.11
  L 463.54 423.68
  Z"
/>
</svg>
